<?xml version="1.0" encoding="UTF-8"?>
<svg xmlns="http://www.w3.org/2000/svg" width="1500" height="1500" viewBox="0 0 1500 1500">
  <rect x="0" y="0" width="1500" height="1500" fill="#FFFFFF" />
  <g transform="translate(90 90) scale(40)">
    <path fill="#FFFFFF" d="M0 0h33v33H0z"/><path stroke="#000000" d="M0 0.5h7m4 0h1m5 0h3m1 0h2m1 0h1m1 0h7M0 1.5h1m5 0h1m2 0h2m2 0h1m1 0h1m1 0h1m2 0h1m1 0h1m1 0h1m1 0h1m5 0h1M0 2.5h1m1 0h3m1 0h1m1 0h2m1 0h1m3 0h1m3 0h1m1 0h1m1 0h2m1 0h1m1 0h3m1 0h1M0 3.5h1m1 0h3m1 0h1m1 0h2m3 0h2m1 0h4m1 0h1m1 0h2m1 0h1m1 0h3m1 0h1M0 4.5h1m1 0h3m1 0h1m7 0h1m2 0h5m1 0h1m2 0h1m1 0h3m1 0h1M0 5.5h1m5 0h1m4 0h1m1 0h1m5 0h2m3 0h1m1 0h1m5 0h1M0 6.5h7m1 0h1m1 0h1m1 0h1m1 0h1m1 0h1m1 0h1m1 0h1m1 0h1m1 0h1m1 0h7M10 7.5h2m2 0h1m7 0h2M3 8.5h2m1 0h2m3 0h3m4 0h3m2 0h2m4 0h2M0 9.5h2m2 0h2m2 0h3m2 0h5m2 0h1m1 0h2m1 0h1m1 0h3M1 10.5h1m4 0h1m3 0h2m2 0h4m2 0h2m1 0h1m1 0h3m1 0h1m1 0h2M1 11.5h2m1 0h2m3 0h1m1 0h1m1 0h1m3 0h1m1 0h2m6 0h2m1 0h3M3 12.5h1m2 0h2m3 0h1m1 0h1m2 0h1m3 0h5m1 0h4m1 0h2M0 13.5h1m3 0h2m1 0h2m1 0h1m3 0h6m1 0h3m5 0h1m1 0h1M0 14.5h3m3 0h3m6 0h2m1 0h1m5 0h1m3 0h2M1 15.5h1m2 0h1m2 0h1m3 0h5m1 0h1m2 0h1m4 0h1m1 0h6M0 16.5h1m2 0h5m1 0h3m1 0h1m1 0h2m1 0h2m6 0h4m1 0h1M2 17.5h2m4 0h1m2 0h2m1 0h1m3 0h1m1 0h3m1 0h1m1 0h4m2 0h1M0 18.5h1m5 0h2m3 0h1m1 0h3m1 0h1m2 0h4m3 0h1m1 0h2m1 0h1M0 19.5h1m2 0h1m1 0h1m3 0h1m1 0h3m1 0h1m3 0h1m2 0h4m3 0h2M2 20.5h2m2 0h3m6 0h3m1 0h2m5 0h1m2 0h1m1 0h1M0 21.5h2m1 0h2m3 0h1m3 0h2m3 0h2m2 0h1m2 0h1m1 0h3M0 22.5h1m2 0h4m2 0h1m1 0h2m3 0h2m2 0h4m2 0h1m2 0h2m1 0h1M0 23.5h1m7 0h1m5 0h1m1 0h2m2 0h1m1 0h3m2 0h2m1 0h2M0 24.5h5m1 0h2m1 0h3m3 0h1m1 0h1m1 0h2m2 0h6m2 0h2M8 25.5h2m2 0h1m1 0h3m3 0h2m1 0h2m3 0h2M0 26.5h7m1 0h1m1 0h2m1 0h2m1 0h3m1 0h1m2 0h2m1 0h1m1 0h2M0 27.5h1m5 0h1m4 0h1m1 0h3m1 0h1m2 0h5m3 0h4M0 28.5h1m1 0h3m1 0h1m1 0h1m1 0h1m2 0h2m1 0h1m1 0h2m1 0h8m2 0h1M0 29.5h1m1 0h3m1 0h1m1 0h3m2 0h1m7 0h2m2 0h1m1 0h1m3 0h1M0 30.5h1m1 0h3m1 0h1m2 0h1m1 0h2m1 0h1m1 0h5m1 0h1m5 0h1m1 0h3M0 31.5h1m5 0h1m4 0h6m2 0h3m4 0h1m2 0h4M0 32.5h7m2 0h5m1 0h1m2 0h1m1 0h2m1 0h3m2 0h1"/>
  </g>
  <line x1="60" y1="60" x2="280" y2="60" stroke="#00BFA5" stroke-width="26" stroke-linecap="square" fill="none" />
<line x1="60" y1="60" x2="60" y2="280" stroke="#00BFA5" stroke-width="26" stroke-linecap="square" fill="none" />
<line x1="1440" y1="60" x2="1220" y2="60" stroke="#00BFA5" stroke-width="26" stroke-linecap="square" fill="none" />
<line x1="1440" y1="60" x2="1440" y2="280" stroke="#00BFA5" stroke-width="26" stroke-linecap="square" fill="none" />
<line x1="60" y1="1440" x2="280" y2="1440" stroke="#00BFA5" stroke-width="26" stroke-linecap="square" fill="none" />
<line x1="60" y1="1440" x2="60" y2="1220" stroke="#00BFA5" stroke-width="26" stroke-linecap="square" fill="none" />
<line x1="1440" y1="1440" x2="1220" y2="1440" stroke="#00BFA5" stroke-width="26" stroke-linecap="square" fill="none" />
<line x1="1440" y1="1440" x2="1440" y2="1220" stroke="#00BFA5" stroke-width="26" stroke-linecap="square" fill="none" />
</svg>